<svg xmlns="http://www.w3.org/2000/svg" viewBox="0 0 600 800" role="img" aria-label="Daughter silhouette placeholder">
  <ellipse cx="300" cy="350" rx="180" ry="225" fill="#5C3A28"/>
  <path d="M 100 800 Q 100 560 220 490 L 380 490 Q 500 560 500 800 Z" fill="#E89BB5"/>
  <ellipse cx="300" cy="490" rx="20" ry="12" fill="#F2BB16"/>
  <rect x="270" y="410" width="60" height="80" fill="#EDC9A8"/>
  <circle cx="300" cy="300" r="125" fill="#EDC9A8"/>
  <path d="M 180 260 Q 210 165, 300 165 Q 390 165, 420 260 Q 400 220, 360 210 Q 320 200, 300 220 Q 280 200, 240 210 Q 200 220, 180 260 Z" fill="#5C3A28"/>
  <ellipse cx="220" cy="185" rx="15" ry="10" fill="#F2BB16"/>
  <ellipse cx="260" cy="310" rx="6" ry="9" fill="#2A1810"/>
  <ellipse cx="340" cy="310" rx="6" ry="9" fill="#2A1810"/>
  <path d="M 265 360 Q 300 382 335 360" stroke="#2A1810" stroke-width="3" fill="none" stroke-linecap="round"/>
  <circle cx="235" cy="340" r="15" fill="#F4A8B5" opacity="0.5"/>
  <circle cx="365" cy="340" r="15" fill="#F4A8B5" opacity="0.5"/>
</svg>
