<svg xmlns="http://www.w3.org/2000/svg" viewBox="0 0 600 800" role="img" aria-label="Father silhouette placeholder">
  <path d="M 80 800 Q 80 540 200 470 L 400 470 Q 520 540 520 800 Z" fill="#5B7E9A"/>
  <rect x="265" y="395" width="70" height="80" fill="#D9A87C"/>
  <circle cx="300" cy="280" r="135" fill="#D9A87C"/>
  <path d="M 175 240 Q 175 140, 300 140 Q 425 140, 425 240 Q 410 200, 380 200 L 220 200 Q 190 200, 175 240 Z" fill="#4A2C1F"/>
  <ellipse cx="255" cy="280" rx="5" ry="7" fill="#2A1810"/>
  <ellipse cx="345" cy="280" rx="5" ry="7" fill="#2A1810"/>
  <path d="M 255 340 Q 300 362 345 340" stroke="#2A1810" stroke-width="3" fill="none" stroke-linecap="round"/>
  <path d="M 240 245 Q 255 238 270 245" stroke="#4A2C1F" stroke-width="3" fill="none" stroke-linecap="round"/>
  <path d="M 330 245 Q 345 238 360 245" stroke="#4A2C1F" stroke-width="3" fill="none" stroke-linecap="round"/>
</svg>
