<svg xmlns="http://www.w3.org/2000/svg" viewBox="0 0 800 600" width="800" height="600" role="img" aria-label="Onboarding form mockup">
  <defs>
    <linearGradient id="bg1" x1="0%" y1="0%" x2="100%" y2="100%">
      <stop offset="0%" stop-color="#4E2490" stop-opacity="0.08"/>
      <stop offset="100%" stop-color="#D9B0FC" stop-opacity="0.18"/>
    </linearGradient>
  </defs>
  <rect width="800" height="600" fill="url(#bg1)"/>
  <!-- Title bar -->
  <rect x="100" y="60" width="240" height="22" rx="6" fill="#4E2490" opacity="0.55"/>
  <rect x="100" y="92" width="380" height="14" rx="4" fill="#4E2490" opacity="0.25"/>
  <!-- Question 1 (unanswered) -->
  <rect x="100" y="150" width="600" height="68" rx="14" fill="white" stroke="#4E2490" stroke-opacity="0.22"/>
  <rect x="124" y="172" width="220" height="14" rx="4" fill="#4E2490" opacity="0.4"/>
  <rect x="124" y="192" width="160" height="10" rx="3" fill="#4E2490" opacity="0.22"/>
  <!-- Question 2 (filled — purple solid) -->
  <rect x="100" y="240" width="600" height="68" rx="14" fill="#4E2490"/>
  <rect x="124" y="262" width="200" height="14" rx="4" fill="white" opacity="0.95"/>
  <rect x="124" y="282" width="280" height="10" rx="3" fill="white" opacity="0.55"/>
  <circle cx="660" cy="274" r="14" fill="white"/>
  <path d="M 653 274 L 658 279 L 668 269" stroke="#4E2490" stroke-width="3" stroke-linecap="round" stroke-linejoin="round" fill="none"/>
  <!-- Question 3 (unanswered) -->
  <rect x="100" y="330" width="600" height="68" rx="14" fill="white" stroke="#4E2490" stroke-opacity="0.22"/>
  <rect x="124" y="352" width="260" height="14" rx="4" fill="#4E2490" opacity="0.4"/>
  <rect x="124" y="372" width="180" height="10" rx="3" fill="#4E2490" opacity="0.22"/>
  <!-- Question 4 (unanswered) -->
  <rect x="100" y="420" width="600" height="68" rx="14" fill="white" stroke="#4E2490" stroke-opacity="0.22"/>
  <rect x="124" y="442" width="180" height="14" rx="4" fill="#4E2490" opacity="0.4"/>
  <!-- Progress dots -->
  <circle cx="360" cy="540" r="6" fill="#4E2490" opacity="0.25"/>
  <circle cx="380" cy="540" r="6" fill="#4E2490"/>
  <circle cx="400" cy="540" r="6" fill="#4E2490"/>
  <circle cx="420" cy="540" r="6" fill="#4E2490" opacity="0.25"/>
  <circle cx="440" cy="540" r="6" fill="#4E2490" opacity="0.25"/>
</svg>
