<svg xmlns="http://www.w3.org/2000/svg" viewBox="0 0 800 600" width="800" height="600" role="img" aria-label="Family plan grid mockup">
  <defs>
    <linearGradient id="bg2" x1="0%" y1="0%" x2="100%" y2="100%">
      <stop offset="0%" stop-color="#C5458F" stop-opacity="0.08"/>
      <stop offset="100%" stop-color="#E89BB5" stop-opacity="0.16"/>
    </linearGradient>
  </defs>
  <rect width="800" height="600" fill="url(#bg2)"/>
  <!-- Header -->
  <rect x="100" y="50" width="260" height="20" rx="6" fill="#C5458F" opacity="0.55"/>
  <rect x="100" y="78" width="340" height="12" rx="3" fill="#C5458F" opacity="0.25"/>

  <!-- Card 1: Dad -->
  <rect x="100" y="130" width="290" height="170" rx="16" fill="white" stroke="#C5458F" stroke-opacity="0.18"/>
  <circle cx="140" cy="170" r="22" fill="#D9B0FC"/>
  <rect x="172" y="160" width="100" height="14" rx="4" fill="#1A1023" opacity="0.7"/>
  <rect x="172" y="180" width="80" height="10" rx="3" fill="#1A1023" opacity="0.4"/>
  <rect x="120" y="215" width="250" height="8" rx="3" fill="#1A1023" opacity="0.12"/>
  <rect x="120" y="230" width="200" height="8" rx="3" fill="#1A1023" opacity="0.12"/>
  <rect x="120" y="245" width="180" height="8" rx="3" fill="#1A1023" opacity="0.12"/>
  <rect x="120" y="270" width="60" height="18" rx="9" fill="#4E2490" opacity="0.18"/>

  <!-- Card 2: Mom -->
  <rect x="410" y="130" width="290" height="170" rx="16" fill="white" stroke="#C5458F" stroke-opacity="0.18"/>
  <circle cx="450" cy="170" r="22" fill="#C5458F"/>
  <rect x="482" y="160" width="110" height="14" rx="4" fill="#1A1023" opacity="0.7"/>
  <rect x="482" y="180" width="90" height="10" rx="3" fill="#1A1023" opacity="0.4"/>
  <rect x="430" y="215" width="250" height="8" rx="3" fill="#1A1023" opacity="0.12"/>
  <rect x="430" y="230" width="220" height="8" rx="3" fill="#1A1023" opacity="0.12"/>
  <rect x="430" y="245" width="180" height="8" rx="3" fill="#1A1023" opacity="0.12"/>
  <rect x="430" y="270" width="80" height="18" rx="9" fill="#C5458F" opacity="0.2"/>

  <!-- Card 3: Housekeeper (highlighted yellow) -->
  <rect x="100" y="320" width="290" height="170" rx="16" fill="#F2BB16" fill-opacity="0.15" stroke="#F2BB16" stroke-opacity="0.5"/>
  <circle cx="140" cy="360" r="22" fill="#F2BB16"/>
  <rect x="172" y="350" width="120" height="14" rx="4" fill="#1A1023" opacity="0.85"/>
  <rect x="172" y="370" width="95" height="10" rx="3" fill="#1A1023" opacity="0.45"/>
  <rect x="120" y="405" width="250" height="8" rx="3" fill="#1A1023" opacity="0.14"/>
  <rect x="120" y="420" width="210" height="8" rx="3" fill="#1A1023" opacity="0.14"/>
  <rect x="120" y="445" width="100" height="18" rx="9" fill="#1A1023" opacity="0.12"/>
  <text x="135" y="458" font-family="Tajawal, system-ui, sans-serif" font-size="11" font-weight="700" fill="#1A1023" opacity="0.7">Tagalog</text>

  <!-- Card 4: Daughter -->
  <rect x="410" y="320" width="290" height="170" rx="16" fill="white" stroke="#C5458F" stroke-opacity="0.18"/>
  <circle cx="450" cy="360" r="22" fill="#E89BB5"/>
  <rect x="482" y="350" width="100" height="14" rx="4" fill="#1A1023" opacity="0.7"/>
  <rect x="482" y="370" width="75" height="10" rx="3" fill="#1A1023" opacity="0.4"/>
  <rect x="430" y="405" width="240" height="8" rx="3" fill="#1A1023" opacity="0.12"/>
  <rect x="430" y="420" width="190" height="8" rx="3" fill="#1A1023" opacity="0.12"/>

  <!-- Bottom: count summary -->
  <rect x="280" y="520" width="240" height="36" rx="18" fill="#C5458F" opacity="0.92"/>
  <circle cx="305" cy="538" r="4" fill="white"/>
  <text x="325" y="544" font-family="Tajawal, system-ui, sans-serif" font-size="14" font-weight="700" fill="white">5 plans generated</text>
</svg>
